<?xml version="1.0" standalone="no"?>
<!DOCTYPE svg PUBLIC "-//W3C//DTD SVG 20010904//EN"
 "http://www.w3.org/TR/2001/REC-SVG-20010904/DTD/svg10.dtd">
<svg version="1.0" xmlns="http://www.w3.org/2000/svg"
 width="500.000000pt" height="500.000000pt" viewBox="0 0 500.000000 500.000000"
 preserveAspectRatio="xMidYMid meet">
<metadata>
Created by potrace 1.14, written by Peter Selinger 2001-2017
</metadata>
<g transform="translate(0.000000,500.000000) scale(0.100000,-0.100000)"
fill="#000000" stroke="none">
<path d="M1328 4640 c-102 -33 -132 -48 -222 -114 -70 -50 -85 -62 -175 -140
-70 -60 -186 -181 -265 -276 -39 -47 -73 -87 -76 -90 -14 -12 -68 -109 -89
-158 -28 -68 -36 -123 -35 -247 1 -66 6 -112 16 -136 l16 -36 -42 -13 c-111
-33 -175 -91 -234 -210 -33 -68 -36 -84 -38 -165 -4 -175 75 -403 172 -497 25
-24 52 -56 61 -72 20 -38 46 -64 115 -116 32 -23 58 -50 58 -59 1 -34 27 -52
82 -57 29 -3 85 -9 123 -14 39 -5 136 -13 216 -16 145 -7 146 -7 141 -29 -2
-13 0 -31 6 -41 10 -19 -3 -64 -20 -64 -20 0 -59 -47 -69 -82 -5 -21 -15 -38
-20 -38 -6 0 -9 -6 -6 -14 3 -7 -8 -28 -24 -45 -16 -18 -29 -36 -29 -42 0 -5
-6 -9 -14 -9 -8 0 -21 -7 -30 -15 -8 -8 -27 -16 -43 -16 -15 -1 -44 -7 -63
-14 -19 -7 -51 -18 -72 -24 -50 -16 -104 -69 -112 -110 -22 -117 76 -326 215
-460 33 -31 59 -61 59 -67 0 -6 -17 -49 -39 -95 -53 -117 -91 -275 -92 -384 0
-123 62 -264 142 -319 l41 -29 126 6 c82 4 178 16 272 36 80 16 168 33 195 36
28 4 61 9 75 11 14 3 32 6 40 6 8 0 49 4 91 9 116 14 152 17 299 24 75 3 145
7 156 9 10 2 78 7 149 11 72 4 148 8 170 10 283 23 793 23 927 0 58 -10 204
-27 338 -40 36 -4 79 -8 95 -11 17 -2 59 -6 95 -10 36 -3 90 -11 120 -18 49
-12 67 -11 170 11 177 36 229 55 283 103 50 43 92 113 121 200 30 91 28 153
-8 268 -14 42 -28 91 -32 107 -9 38 -52 125 -62 125 -4 0 -12 8 -19 19 -10 16
-6 25 29 62 120 131 217 368 205 498 -9 90 -30 154 -77 238 -42 75 -41 145 4
267 40 106 70 242 68 305 -3 84 -77 263 -136 329 -49 53 -186 120 -265 128
-51 6 -58 9 -58 28 -1 49 -15 64 -92 100 -42 20 -82 36 -88 36 -6 0 -10 8 -9
18 9 55 -37 133 -94 162 -48 24 -91 25 -177 4 -53 -14 -74 -26 -112 -63 -46
-44 -111 -137 -111 -158 0 -5 -11 -31 -24 -59 -13 -27 -29 -72 -36 -101 -13
-50 -33 -73 -45 -52 -4 5 -11 7 -16 4 -17 -11 -21 26 -5 44 12 13 14 21 6 26
-8 5 -7 11 2 23 11 13 11 14 -1 7 -12 -7 -13 -1 -7 31 4 21 9 53 12 69 2 17 6
39 8 50 21 89 24 306 7 401 -29 156 -139 277 -338 371 -83 40 -161 50 -229 31
-20 -5 -89 -11 -153 -12 -105 -1 -122 -4 -176 -30 -33 -15 -75 -30 -94 -33
-19 -3 -59 -14 -90 -25 -31 -10 -60 -19 -66 -20 -16 -1 -102 13 -131 21 -15 4
-52 4 -83 0 -31 -3 -57 -5 -59 -4 -2 2 1 20 7 41 66 245 -74 455 -423 633
-137 70 -260 79 -408 31z m177 -100 c3 -5 1 -10 -4 -10 -6 0 -11 5 -11 10 0 6
2 10 4 10 3 0 8 -4 11 -10z m82 -121 c30 -11 45 -28 36 -42 -3 -5 -9 -4 -13 3
-19 31 -125 13 -216 -37 -96 -53 -273 -189 -329 -252 -68 -77 -166 -208 -183
-243 -9 -21 -20 -38 -24 -38 -11 0 32 111 53 139 11 13 19 27 19 32 0 37 178
242 265 305 22 16 42 31 45 34 11 11 67 42 120 66 30 13 62 29 70 34 21 12
123 12 157 -1z m-1102 -1617 c-3 -3 -11 0 -18 7 -9 10 -8 11 6 5 10 -3 15 -9
12 -12z m1625 -721 c0 -6 -4 -13 -10 -16 -5 -3 -10 1 -10 9 0 9 5 16 10 16 6
0 10 -4 10 -9z"/>
</g>
</svg>
